<?xml version="1.0" encoding="utf-8"?>
<!-- Generator: Adobe Illustrator 27.9.0, SVG Export Plug-In . SVG Version: 6.00 Build 0)  -->
<svg version="1.1" id="Capa_1" xmlns="http://www.w3.org/2000/svg" xmlns:xlink="http://www.w3.org/1999/xlink" x="0px" y="0px"
	 viewBox="0 0 1319.4 1349.3" style="enable-background:new 0 0 1319.4 1349.3;" xml:space="preserve">
<style type="text/css">
	.st0{fill:#FFFFFF;}
	.st1{fill:none;stroke:#444444;stroke-width:425.1968;stroke-linecap:round;stroke-linejoin:round;}
	.st2{fill:none;stroke:#FFFFFF;stroke-width:158.4624;stroke-linecap:round;stroke-linejoin:round;}
</style>
<g>
	<path class="st0" d="M655,157.6c-212.4,0-385.3,172.8-385.3,385.3c0,85.6,54.6,225.1,167,426.5c79.5,142.4,157.7,261.2,161,266.2
		l57.3,86.8l57.3-86.8c3.3-5,81.5-123.8,161-266.2c112.4-201.4,167-340.9,167-426.5C1040.3,330.4,867.5,157.6,655,157.6z M655,740
		c-110.3,0-199.7-89.4-199.7-199.7S544.7,340.5,655,340.5S854.7,430,854.7,540.3S765.3,740,655,740z"/>
</g>
<g>
	<line class="st1" x1="841.9" y1="326.2" x2="1238.7" y2="326.2"/>
	<line class="st1" x1="1040.3" y1="524.6" x2="1040.3" y2="127.7"/>
</g>
<g>
	<line class="st2" x1="841.9" y1="326.2" x2="1238.7" y2="326.2"/>
	<line class="st2" x1="1040.3" y1="524.6" x2="1040.3" y2="127.7"/>
</g>
</svg>
